<mxfile host="app.diagrams.net" modified="2021-01-21T14:30:57.988Z" agent="5.0 (Windows NT 10.0; Win64; x64) AppleWebKit/537.36 (KHTML, like Gecko) Chrome/85.0.4183.83 Safari/537.36" etag="MrpFa1CkxORsRTBnjWk-" version="14.2.4" type="github">
  <diagram id="Y1mcGkw4t9FSyhicAMck" name="第 1 页">
    <mxGraphModel dx="529" dy="784" grid="1" gridSize="10" guides="1" tooltips="1" connect="1" arrows="1" fold="1" page="1" pageScale="1" pageWidth="827" pageHeight="1169" math="0" shadow="0">
      <root>
        <mxCell id="0" />
        <mxCell id="1" parent="0" />
        <mxCell id="N9XbUqhTSogNOb94nLWw-3" value="" style="edgeStyle=orthogonalEdgeStyle;rounded=0;orthogonalLoop=1;jettySize=auto;html=1;" edge="1" parent="1" source="N9XbUqhTSogNOb94nLWw-1">
          <mxGeometry relative="1" as="geometry">
            <mxPoint x="380" y="370" as="targetPoint" />
          </mxGeometry>
        </mxCell>
        <mxCell id="N9XbUqhTSogNOb94nLWw-1" value="api" style="rounded=0;whiteSpace=wrap;html=1;fillColor=#dae8fc;strokeColor=#6c8ebf;" vertex="1" parent="1">
          <mxGeometry x="110" y="340" width="120" height="60" as="geometry" />
        </mxCell>
        <mxCell id="N9XbUqhTSogNOb94nLWw-4" value="生成的接口文件都放在这个目录下，以模块名为名" style="text;html=1;strokeColor=none;fillColor=none;align=center;verticalAlign=middle;whiteSpace=wrap;rounded=0;" vertex="1" parent="1">
          <mxGeometry x="384" y="345" width="166" height="50" as="geometry" />
        </mxCell>
        <mxCell id="N9XbUqhTSogNOb94nLWw-7" style="edgeStyle=orthogonalEdgeStyle;rounded=0;orthogonalLoop=1;jettySize=auto;html=1;exitX=1;exitY=0.5;exitDx=0;exitDy=0;entryX=0;entryY=0.5;entryDx=0;entryDy=0;" edge="1" parent="1" source="N9XbUqhTSogNOb94nLWw-5" target="N9XbUqhTSogNOb94nLWw-6">
          <mxGeometry relative="1" as="geometry" />
        </mxCell>
        <mxCell id="N9XbUqhTSogNOb94nLWw-5" value="router" style="rounded=0;whiteSpace=wrap;html=1;fillColor=#dae8fc;strokeColor=#6c8ebf;" vertex="1" parent="1">
          <mxGeometry x="110" y="470" width="120" height="60" as="geometry" />
        </mxCell>
        <mxCell id="N9XbUqhTSogNOb94nLWw-6" value="所有的路由都放在这个目录下&lt;br&gt;&lt;br&gt;&lt;div&gt;&lt;span&gt;可以放在modules目录下&lt;/span&gt;&lt;/div&gt;&lt;div&gt;&lt;br&gt;&lt;/div&gt;然后使用 import 的形式引入进来" style="text;html=1;strokeColor=none;fillColor=none;align=left;verticalAlign=middle;whiteSpace=wrap;rounded=0;" vertex="1" parent="1">
          <mxGeometry x="384" y="467.5" width="186" height="65" as="geometry" />
        </mxCell>
        <mxCell id="N9XbUqhTSogNOb94nLWw-8" value="" style="shape=image;verticalLabelPosition=bottom;labelBackgroundColor=#ffffff;verticalAlign=top;aspect=fixed;imageAspect=0;image=data:image/png,iVBORw0KGgoAAAANSUhEUgAAAaUAAAGuCAYAAAAwFRltAAAgAElEQVR4Ae2df2/jRprn8wLmXsC9gzE6SEu2ZFtqSXbb7vEP+Zdsy7ItR1Lb7b523LuXZOYGt0hiexYbTJLOpA/XwgGzuLssbtaeSfqCQ/4IkFWwr+05FKlHLJWKMmlJVJH8/iFQJItVpapvPR8+Raqed3Jzj8nLZ3Jy0lM6L3khjbc2RzuhnaAB8zXwKD9Hh9X3+35EGmFDk1NpfO5og3e8ih5QMn9weO1LpENfQgPD0wCgNFzQAkoePUUM4uENYrQl2jJKGgCUACVMIwKk0AA0YIwGACVAyRgxRuluD78F3gs0cD8NAEqAEqCEu2RoABowRgOAEqBkjBhxZ3m/O0u0G9otShoAlAAlLZT++OafSf5cffmajhrPtGmjNCDwW2DgoYHxagBQihiU/vTNN/TDDz+4fsR5L4NOBpL8vfHipafrvZSBNOMd/Gh/tL+JGgCUIgalrdIuvX37VgslcVyc9yJEGUR+vnvJG2lgDKEBaMBNA6ZBKZEu0NLWIR3UT6nWOKGDyg4t5WcpmUyF4o+7RvxP6fL6D1ooieNuQlCP+wGRnFbNB/swPtAANOBHAyZBKZHM0XLlhA5Kq5TPzNJUOkvZpU1aW8gCSn469Tera/TXv/6tC0xiXxz3mo8MGj/fdfnvXt3SL7/8Yn1arSadF+YpW6jQ5W2L3ly8pDetFrVur2nXOm7vc/qbq4rnOuvKxjEYRGggXBowCUqpxTIdH21SNiRekW7ZJSM8JTEIP/rt77qgJPb9DE4/IJLTqmVky9d00waRfI6hxJAS57IFG0gAUbiMiNyv+I6+G1QDpkApkUzRfOmUKsV8KKbpdEASx4yB0tzCEn377bcWmMRW7PsRiwwaP9/VMhg0rdYtXZbnO3VgKL25kI5dNDsek5oP9mHsoIF4aMAcKGVpuXJGpSdztLh5YD1TOq7XqVxao2w6HM+TjIKSGMCnZ88tKImt3wHtB0RyWrdyGEIMJ94HlOJhaNx0gePof1UD5kApRyuHZ1Q7rtDaQoHSU9M0NTtPy+UTqpaWKBWSKT1jPCXR0fn5Bfrk08+srdrxd+3LoPHzXc1XTN9dtr0hGUTyd76GvSoGldi/xDMl3zcU3J7YwuCHUQPmQGmWlvbPqLyS7Zq+SxS26ai+QwVAKdgB5gdEclrdIDhvtpwXHZr2/5x0UBLX2s+g7PTy8yZdvjgWrCbQ3mjvIDRgCpTE1FemWKPa3nK3VzRXApSCEIJahgwaP9/VfLAPQwYNQAN+NGASlBLTy1SqP6XSymOaSU9TKrNI6wcntF8s4JVwP52KtDAC0AA0EFYNmAQl64227DKtl+tUbZxStVql7bXHNB2SqTvjXnQIqyhRbxhUaCC+GjAOSneEG7fAZXAao150wMCO78BG36Pvw6oBQClia9+FVYioN4woNAANCA0ASoASXjlGgDdoABowRgOAEqBkjBhxp4w7ZWgAGgCUACVACXfJ0AA0YIwGACVAyRgx4i4Zd8nQADQAKAFKgBLukqEBaMAYDQBKgNJIxaiuBnH15Ws6ajwbaZnq3ba9dFH3KuVqGuzjDh0aMEMDgBKgpAXEn775pise0w8//NC1L857GcQqlHi/8cJeA89LHoOmAZTMMDaD9iOuj0c/AkqAkhYuW6Vdevv2bReIGEziuDjvxUgwhPxuveSNNPEwUujnePUzoAQoucLl8voPWiiJ414NhV8YcXqv+SNdvAwW+jv6/Q0oAUqugPnN6hr99a9/6wKT2BfHvRoHhozfrS5/OazFL7/8Qk7cpQpd3rbozYUdTl2c6zrvEpJdVwaORd/ooY/N7mNACVDqC5iPfvu7LiiJfT+D2i+MOL1ahhV/qXlNuwU7fHpWhE5vNem8ME8cm4n3xbVd5wElX32mtj32zTbiUesfQAlQ6muw5haW6Ntvv7XAJLZi388gYMj43bqVsXt16wQMVKDEnpO4lkEljtkelg0wt3xxHIYXGjBDA4ASoHQnZE7PnltQElu/A9cvjDi9Wg5P3d20w6PLoJEBxNfJx+S0fB5bMwwQ+gH9oGoAUAKU7gRNfn6BPvn0MxJbVUB37TNk/G7VfK3puFtn+k54TDxdxwBqtUOti2u7zmP6zne/qe2PfcAjKA0ASoDSSA2WXxhxenUAMHj4JYabZpNu1Om7ZrNnak/kA08JBlXVE/bN1QSgBCiFAkr9jAgDS36m1C89zplrkNA36BtACVAaKZSCMDKAEgxZEDpDGcHoDFAClAAlLMYZeg0AGMEAI4h2BpQAJRgkQAkagAaM0QCgBCgZI8Yg7sJQRnTuqNGX0exLU6CUSC7Q5tMzapw+7/nUGztUSKYoOTVcgIwiv3e8DpTJyUnAAHen0AA0AA0oGjAFSjpAJKZy9GS/TqWlLCUApWjeFXmFONKh/6GBeGjAVCglkmmaXT2iw90nlAoJkARY4Skpdz0wJPEwJOhn9POwNGAslNJPqNSo0komHNN27OkBSoASpmOgAWhgAA2YCqXZtWM63lkOlZcET2kAId7nLuvp+d9Zg59XgZC398kP1+BuHxoYvwZMhFIiWaBi9ZS2Hpv/YgN7SLyFpxQQmASQBISEEZFhxN9HZVzsJYtu6bJsh9DQlZMtiLhO/lYl95KvriwcG78RRR8Mtw+MhNJskfZPDmlpOlxTd/CUAgYSoDRcYwDjivY0QQMmQmlqcZ9q1S3KhugFB3hKYwBSEFC6zxJG9/GUTDAGqAOgZIIGTITSzGqV6vtrlAaUMEi8DBKespO3Xq7zkgZQgga96ARphqcTE6GU22xQfW+ZpgCl4XV0VAaNDJ5+3/v9Xvv5TasT5oJXF3cAJJ4Jtejfbt7Qn1tOutbtNe3sXXdCZogybK/ISSOCEKqeki6NWj81vIYuwq56DfYxPqKoAROhxFNhYdziRYcRT+P1A5F8zm2wWuBpOsECreCBSlwmDh4o8nBAZb/YIMODYcPRcLlMGUr2d+fFCDW/zjVSIEK5DD6PLQAUFw0ASsN9ww9QGjGUhjUwdZ6IDhjqMRkYajRcrlsXlC6cwIMcoFBse0AmQ8l6e69FrZYDM84bW8Ap6hoAlAClUPzR79+/KdB9P/IgtqHS6kChCzKFCl3etoin88R1w4CSmPbbLbi/Qm6VI0GJ68tlA04AEWsiDltACVAKHZRK8xMWoP7p+RTtL04Q77tBSx7IqncjPCaermMIeIZS26Ph9MJDulSeKdleUzfozpv2f5hsINreUBccy9d0edGeLtSAUv49+A5gRU0DgBKgFFooCSB9f/3oTg9KHrQMHp5Ku2k2Oy8u8DmGDF/HU33aFx0sD8d+0cGBW/efZ9k74zI5fzcoiXLPm87LE63my1D0EbcXtgDlIBoAlAClUBg82Qtiz+jVeYreX3lAHx88pJ++yLnCaZABEtS1sqcUVJkoB/AwUQOAEqAUGih9d5mlHz/PUXnBnr4ToGp9nacP9x/Sqw9SoYaSNY3o4dmTiUYEdQLchqkBQAlQCgWUfv4qT+c771F5cYLEsyQBpI8qD2l3YYLONt/tO403zAEz7LzEMy4xrcdTf8POH/kBGGHTAKAEKIUCSvL0nd/vYRuUqC9AEmcNAEqAUiigFOdBit8OSMVJA4ASoAQoheQPv3EyTPit8QUxoAQoAUqAEjQADRijAUAJUDJGjLg7ju/dMfoefc8aAJQAJUAJd8nQADRgjAYAJUDJGDHynZLXrQiJLtLKq4Pzd695IB3u0KEBszQAKAFKoYSSAJIA0LChJC/9089YeU0n53Gfa+Tr8d0s44n+GE1/AEqAUuigxEAClEZjFGBs0a7j1ACgBCiFCkoykEYBpXEORpQNGEADjwlQApRCBSXdoOXnSPJWlw7HYPShAfM1ACgBSqGCkgyeft/7GR+OccShJKy159qLocqrddvpbunyyokeyxFju9IpAfrkc3I91OMcEgNr35lvKOV+xPfR9hegBCjFCkoMJI5pJAyMiF3E0WFlcHBajmdkn9MH5btp2YH7RH5yHrIBk4/L3+U0+D5ag4f2Nb99ASVAKVRQGtSoqJFnRX7yMRkWHU+pLEeBHRKU2lFrEercfCM5qOZwvb8+NglKieQ0ZZZKtHP0lI4bp3R0dEjri3lKJlOUnBouPEaV3zteBTg5ORkrGHhtF7d0flcGl9PLecoA4uPysaCg1Cm7He4ccPJnuLj9sI1euxkFpfwWHTaOaHUuS1OpaUpnl2mrWqdiIRxAEqADlEb0z3gZMhx5VsRVEiHReV9OI3+XDRdPyfH0HYdAd5++sz0jkYed1s1TctJZAfva03k25PTXXF7IHliLuE5yffE9ekYXfdq/T02CUnJuh6pHGzQreUa5jadUWcvDU4q7kGXIMIQEkL6/fuQacZavUdtOeEb8koPloVw1+zxTcmDjBiWRv/zSwk2zSfyMyQ1K4hrxLKtTj+ZLeM4juqFR+x/7/aEw7vYxCUqJZIby6xXa292ghUKW0rk12qmf0NbjGUBp3EIZd/kMGLFlKL06T9H7Kw/o44OH9NMXOVc43VV3efrurrSDnJenBgfJB9eabVTRP4P1j1FQmsrS4+1jOj45o8bpc6qfPKPK5mNKSZ7TqJ4FDStfTN+N6G5XwOi7yyz9+HmOygsTHQC1vs7Th/sP6dUHqc4xGWDi+11GIigoWdN67VfP76oTzg9m2NB+4W0/U6CUSKYpt1Gjeq1Cy4UszRSWaXWnSvu7G5SfxosOdxrWqA/Cn7/K0/nOe1RenCDxLEnA5qPKQ9pdmKCzzXf7TuPd1TajhhJPF7ak18bvqhPOh9eoou8G6ztzoDRP67UT2pyf7kzVCVBl1qtU21uhdEi8JXhKI/SUVA/I6z6MxGBGAu2H9gtSA+ZAqUDFaoOK+W6vKDG/Q8f1EuUAJQyMIAcGyoLeoIHxaMAcKKUos1alamWb5nMZmpqaplRmgdYqp1TdWQrNcyV4SiPylGAgxmMg0O5o96A1YAqUxIsGialZyq/u0l7V/vNstVql0sYyZVLd3tOwXkoYRT6AEqAU++d/QRsxlBctcJoEpVFAIug8ASVACVCCBqCBATQAKA13tQhAaQAx4o43Wne86E/05300ACgBSqG9qxMB/4TodSEs7jMYcA2MKDQwfg0ASoBSKKHEEWgBpWCMiLpiupvxlpdVckuD48H0WVjbGVAClEIHJQaS8JDEwIOnNHojByiNvo3DCpFh1xtQApRCBSUZSGGDEq9IHsbVwL1CadgGCvnFD4aAEqAUKijpjFRYPCVAKX4GVqdXHOuvA0AJUAoVlHQA0h1zG/gOGF7Sm5YUBr0dCZZDSdxcVax26XgIF9d007JDTQhPh9ezE+k5rSjTTi+FpOC4Skr+nfhNynE5L91vkENkyGvpqeXK+djPeZw6safmpy067XAlhf3QhNtQV0J3q6/ut+FYf2Mdl/YBlAClWEKp16CrcZPsoHts7DsQacdiarUNsmyEOW0XEC6axGU5EODgfgKM+nJ1BkguSz7fAUZX2Hauf4Uum9e0W2iXqakP10/kqfsN8vHu3+3Unesj11H+zuexBXju0gCgBCiFCkp3Cfqu8yoYRHrZ62FPiT2gXoOvgsTZ1602Lpcnf/dWru3dcKh0Bgbv82/tV39Oo/NY1PpwnRjAfK113PLoHAjZ1zr7nFYGkVt9OS22AJROA4ASoBQKKHldEVyXTha+H0MsrhsOlGzjrZatg5hcV7fvnA/DqV8+NiRanSnGbmhU6PK2Owy7W1697SCu7Q8lrr9aXz6OLaCk0wCgBCiFDkoceVbEVRIh0XlfByRxTBY+G0h+riLO8R29fOy82aTzwrw/KLWfD/VM37UD+6ll9ytXrjN/F0C5vOCpPwco/fJRIWMFGuw853Ly6JTR/g3cFiLvy6uKph0cKNmga4O3LJ69tdvOpb5cFraAkk4DgBKg1GW0dSIx4ZgMHIaQANL3149cI87yNXL9VTDwOfYoePpONsrdz32c6TpxrQ0Ex2NgQHA+8vMakZ6n0XiKzK1crpe6PW86Lyzw8x2rHhYMnHNO/W3wcH1umk0HGoVeKKl5cf17f+fdUBJ5udVX/V3YB6BYA4ASoBRaKL06T9H7Kw/o44OH9NMXOVc4sdixHb3hsyFre0po79G3dxTbGFAClEIDpe8us/Tj5zkqL0x0ANT6Ok8f7j+kVx+kOsfYQ+JtFAeuqb/Jmh5sT1eaWkfUy2xYAkqAUiig9PNXeTrfeY/KixMkniUJ4HxUeUi7CxN0tvlu32k8GKHRGyHx7EpMEfJ0H9p89G0e1TYGlAClUECJvZ77bKM6ePG7YPijqAFACVAKBZSiOPjwmwAVaKBXA4ASoAQoITAhNAANGKMBQAlQMkaMuGvsvWtEm6BN4qYBQAlQApRwlwwNQAPGaABQApSMEWPc7gjxe+EFQQO9GjAJSompDOVXd6lcPaHjxlOqlEu0kJ2m5NRwwTHK/N7xKrLJyUnAYMC7UxHwT7S3n9AVXvsH6XqNBdoEbRKEBkyBUiKZpmzxmI4PSjSXnaGpdJbyK/t0VN+nx9Op0IAJUBoQNF5FzxFoRfpRQ8leYsffKgXyenBefxPSwehDA4/JHCjNUfH4hDbmHa8okZyhx7unVCkWACWI1TFYDCQBI9EugJLTNtAJ2iLsGjAHSvO0UX9K64Vuryi9fEj1yhqlk93HRzkFN0je8JRG7CnJQDIZSmE3DKg/4DYuDZgDpRma33lKR+V1ys3OUDI1S5mFDdqpPqP60QbNAkoYJG6DxERPya2uOA4dQwP9NWAKlIR3kkjP0ZPSER3WT6lWr9Pe1irlVvapfrBO04BS/46Mi9B1ANIdc2sPJ3SFCEHRok4IiXYcIQ7xIK/hpj5TUsNTyPGTuFx1tWwOWYH14aBj1gi2ei2YBCXdtFmmWKPj0hIlASV9B8ZN2DoA6Y65tQtDqRc6TnRWca0VHI+D1VnAcgv61y8mkRPsjgPfudULx6FvaMDWgMlQSkzNUbF6StsLM3jRAYIdjtFiKHEQPNGuanRW65gUAE/2lHg1bPaoeKt6S7KnxJ4Vhy9HXw6nL9GO0WxHU6AkXgmfWdik1aU5mk5PU3p2npZKNTquFEPzPEl4enjRYUQvOtxndXC+RjZe/qDUDvEte0oXzc6Un5yv+l2GEp/jsgGnaBpT7mdsB+tfk6CUyq/SZqVGR41nVKvXaHdrlbLpcLx1x1OPgFIAUOJw6CKukgiJzvsMIXUrGwkGQ5en1H6eJHs7svfU5Sm108rXnzflabo2yKzw5M7xy4t56/V1Xfly/fB9MIOG9gt/+5kCJTbqYd8CSgFCSQDp++tHrhFnGU6yoXKDAk+x8XRc7zMnGzAiL9sLallB7UR6BpR9vBdK4przppO+1XyJ1TxGpBO5r/E9nIAClJw/6w4DiIDSiIwNA0Zs2TN6dZ6i91ce0McHD+mnL3KucBqHcdJN342jHigznIY5zv0GKAFKobhrFzD67jJLP36eo/LCRAdAra/z9OH+Q3r1QapzTAaY+D6OAS5eAefXzcdRPsoEjMKqAUAJUBqL0fY7YH7+Kk/nO+9ReXGCxLMkAZuPKg9pd2GCzjbf7TuN57esQdLz23ny9N8g+eFawCVuGgCUAKVQQEn1fvzsx21Q4/cCZGHWAKAEKIUCSmEeZKg7IAENeNcAoAQoAUojejkDhsi7IUJboa1YA4ASoAQoAUrQADRgjAYAJUDJGDHynRK2uGuGBuKrAUAJUAKUcJcMDUADxmgAUAKUjBGj37tjEfBPXONnlXC/ZSB9fO/Y0ffj6XtACVAKJZQ4Aq3pUJKXHoKRG4+RQ7uHq90BJUApdFBiIAkPCVAKl8EBINBfd2kAUAKUQgUlGUhhgNJdAxDnYaShgW4NAEqAUqigpBvAeKbUPah1bYRjaKOwaABQApRCBSUdgHTH3Aagunq3ui8WUnUPX+GEn+DYS04ojJf0ptXqWYTVa/5u9cVxwCRuGgCUACVAqeUE47tpf5cNgR1ryY6TJI47IJrvfHdbgFWGkvxdzh/fAR5owNEAoAQohQpKgw5eFQzyPgf6U8OV88rf7EHxVnhLMqB0dfOSv+46HHOMFNoiXm0BKAFKoYCSn1XB1bSyUZMhIY6r+9axQoUub1vEcJJDo8t5yWk5+mzPeSksOp9jkHH+fBzbeBlf9Le+vwElQCl0UOLIsyKukgiJzvsqjHhfHvw2hJypOCsYnzR9d3kxb7UHg0PAhj0oGTznzfaUXxtg8jm5DBl64rsuf7l++K43VGiX+LQLoAQohRZKAkjfXz9yjTirg5IwbvLLDDfNJsnPkc6bzssMrebLTtvYcHHOMYRkeLHhdIOSOO+WP1+LbXyML/pa39eAEqDUMbwmDxIGjNiyZ/TqPEXvrzygjw8e0k9f5FzhNM7fJXtK46wHytYbQLSLee0SFJQSyRnKLBZptXRAh40z2luepeRUNxASyRSl5zepdNig46endHS4TytzGRLH1bQm7ZfLZeLPO15FPjk5GQoYeP09o04nYPTdZZZ+/DxH5YWJDoBaX+fpw/2H9OqDVOeYDDDxfdR165e/NT14e027BXtasF9anDPPQKJPgu+T4KCUofzKBq0Ut2m3podSMrtO+09rtLFQoHQ6Q5nFHao0qrSc6YaXSUASdRFAevDggfUBlEa02vLPX+XpfOc9Ki9OkHiWJGDzUeUh7S5M0Nnmu32n8cZhWPiNPbdXxcdRJ5QZvIFFm/tv86CgxCBJJHO0ctgLpUQyTfmtp3S09ZiSbc9IHCtsdx/jfEzaAkojApE8oFXvx8++nA+++zcSaDO0WZAaMAdKOVo9PKPtBcUrWixT7WCdZgyewgOUAoBSkIMCZcEIQwPj04A5UJqn9VqDioUUJee26bBRp+LcNCXy23RUK1EeUBqfSDBA0fbQADQQlAbMgtJTKuYVKBW2qVorUQ5QwqAIalCgHGgNGhifBsyBknjW9Iy2FzXTd4cbmL7DIBnfIEHbo+2hgeA0YA6U0pTffErV7QXpRYdpmtt+Soebj41+LRzPlPBMaayvncNgBmcw0dajb2tToGS9TZdZp3KjTltPxCvhs5R9skeHT4/oScbc/ylNpWesV8LT6TReCceAHf2ARRujjaOugaCglCnWqHH6vOdTl54XiT/JTs9tdP15dnVu1mgvScA0+yhPOzs7JMCE/ykpXpMa6+jqy9d01HgGz0Jpp6gbGvw+wNSrBoKCkkn/KxpFXRhMkYHSN69f02ZpZ2B4qFDi/cYLZ105r2JFOhg2aCD6GgCUlBcrlKWP/ABMgCkyUPrhhx/o7du3dHX9B3qysnZvODGE/G7HZXx0C6yOqy4oN/oGGH3c28eA0vCgJAAWKSgJMInPX//6N/ro49/S3MKSbzj5hRGnH9dgBZR6jcS4+gLlxrMvACVASQsaBpK8/fbbb+n07D9p07sZEIaM360uP7fwESKtHI5CXm/O7TjHSOqOIvuS3rSc8BSt9kKqbnno6ohj8TSk6Pfh9TugBChpISPDSP3+yaefaa/RDUy/MOL0al6WB9N0Vtu2osFKwfnkmEh8rVvYCBtITqA/2TuSv4t83PLgMrAdnjFCW6IthQYAJUBJCxgVRGJ/3J6SEKzOa2GvRw0v7nr8oknsIcnbm6sK9UCpYHtPat4woDCg0MBoNAAoAUp3QsmEZ0o8dSfAIYyBzoNhoKgAUY9bXpZLjCNOy5Fl2fDwcTVvPo/taAwU2jV+7QooAUquUDLp7TsVJMJj4mdHAlCXF3YQPYaHgIrr8bb3I4PnvNmk88J8r6fkkjeMZfyMJfo8mD4HlAAlLZRG/T8lfnbktlUNAMOGp9tumk2SnyOdN6UXFJrOf6DcjrPnxfnJgOIpQn7RwS0PtY7YD8ZooZ2j3c6AEqCkhdKwBr4bdO46PqzykU+0DRj6N3r96wdKk5OThE//NojM/5Qw2KM32NGn6NMwaABQ6g8ZvxAGlLCm20g9zzAYFdQR8BtEA4ASoAQjCpBCA9CAMRoAlAAlY8Q4yN0VrsXdOTQQDQ0ASoASoIS7ZGgAGjBGA4ASoGSMGHGnG407XfQj+nEQDQBKgBKghLtkaAAaMEYDgBKgZIwYB7m7wrW4O4cGoqEBQAlQApRwlwwNQAPGaABQApRGKkZ15YarL1/TUePZSMvEHXM07pjRj/HsR0AJUNICYtRr3zVeOOvTwfjE0/ig39HvOg0ASoCSFkoifpJJq4TrxBuHY7wQrbxgbBx+N35jfIEVFJSSyQytVV/Qh5/8kf7H//4/9OVZoWcdPS9p/C77E3T6yCwzJAf5MyGeUlyNFKAUX+McV80HB6UC7T7/e/r7v/8dfflnNyjdnSZoyPgtL5JQYkCNO/IsR5LlcBOdgH/t+Eh8nOMsiUHdCX1+cU03LTu8hRVrSYo+6+RTocvbFr25sKPNcn6yl6LWQVvWlRPZlvN26uKE2OBznToq1/WU1Q5MyKE1RP3k8uNqxPC7owXuoKDExj2ZXKSX/00PJT9pOK1p20hDieH0yaefaaf8dMZBfdHB676aFxtoNuR8XnfcCgjY4qB97XDmbYMuzlnGvB1zSY5gy16JbOh1ecl10J1vdeV9S5dlETxQ1MP+LurOZVmA5JDr2usYlO0ghmUBV/u3cRtgGy2jHPf+BJTwTEkLGAaQvB2np2QZf00Ic93xXoMvw0CFg7MvX8eGQT7mvywBlDaUJM+MPTCxFYDTA4thpkCJASYBjuuKLeAUBQ0ASoDSnVAy4ZmSDghiAOqO2yBho+5Ax0rf47E452UA8eCWj/kvqxtKHMmW8+atHyg519iwagFOWv1yO2EbPlADSoCSdlALD8mkt+94mo6f74j9y46X0bI8DjZAMjx6Db4DIZFePs8A4uk3cV48v+HpPK5Dz/QdTw32AE+CUtvD4fqLvM+b8hSj7M3J19nw4evEdOPlRXsqr9B9jn8/tuEzxHDhZJcAACAASURBVOgzp88AJUBJC6VR/0/prmdLukFqP/+xXxRgUIh0DAueFus9Jxv8u6H0pum8qCDn5b8sBy7WtdbzIOdFhw5o+sBMXMcvNrCndd508pABKtLigzYIuwYAJUBppIbsLvi4nR/HwGJPiWExjjqgTEAl7hoAlAClkUIpTAMMUAIQwqTXqNY1KCit/uc39K9/+UvP5y9//i+0lUxaf6T1ksa0V8DV+kTmlfCoCr7f7wKUAKV++sC5YPQRFJRU4x3VfUAJzzXgeUID0MAAGgCUMH2HATTAAMLdczB3z2jn+LQzoAQoAUqAEjQADRijAUAJUDJGjLgbjs/dMPoafe2mAUAJUAKUcJcMDUADxmgAUAKUjBGj250TjuOuGhqIjwYAJUAJUMJdMjQADRijAUAJUBqpGNUVG66+fE1HjWdDKbNrjTtrCR9nOaFR3FnbyxyNtoxR1Bt5xsfLiEJfA0qAkhYQo177rvHipbZcP4MKUIKx9aMXpA2HXgAlQEkLB9NWCdcZFBlKuvODHsMKD+EwYoP2M643q5/9QCk5lSZ8+rdBZFZ0kIP7mRBPSWc4ACWzjImuj3AMfeRXA4BSf8j4hXAkocSAGmfkWSFsNUSFFdacYxlJYcIdD0eEqWgRh3xQr++Ki9SOd8ThL/718h+sa3lf5LGzZ4cif5Hfp8vb7hhOVtwlrouSl1yO3wGK9DDqcdMAoAQouU7fMYzU7Seffqa9Rjd41BcdvO6reTFQ5LASIq5QBzgaKMmxkOzrnZcUHHDNd2CnwkNOI+pjv+jQDsx30XTKloLt9StH/U3YB3CggV4NAEqAkhYwKojE/jg9Jd1UnXysCxgSJHjQi7Ts9chbASI5H04vtn2hJAXm6yq7Tzly3vjea4zQJmgToQFACVC6E0omPFPSgUM+1gUGFyixV6UaPzkf+Vw/KIl0wlMTUBNTd+xlueUl54vvML7QgLsGACVAyRVKb9++pavrP9CTlTVtGi8Dy+t0nZpOzVudvmNgMGjuhFL7OU/39F97Kk45J8q6FB6UAje5DFE/a/+2SW9u5WlB+zmWrhz1N2Hf3TChbeLbNoASoKQFzqj/p6RCSN3XGSXhhfDUW6t1S5dX0nMdzTMlGQwiPxsqrU4e8nn5nPwsSnhBokz5RYfzwrzVZgytVrP7P1dyXuJauRzd78Kx+Bpg9H1v3wNKgJIWSsMaLCpsvO4Pq3zk0zvo0SZoE5M1ACgBSiOFksniR91gnKEB8zQAKAFKgBIW44QGoAFjNAAoAUrGiBF3rebdtaJP0CdBawBQApQAJdwlQwPQgDEaCApKieQMZRaLtFo6oMPGGe0tz/aso5dIz9HS1iFVaqdUqzeosrdNC5npnnR+l/4JMn1klhkK+u4I5eGOHBqABoQGgoNShvIrG7RS3KbdWi+UEslZWthrUHnjCWVmpmkqnaO59SM6rpYol0qFBkyAEu44jbnjhJGHkQ+jBoKCEnsriWSOVg57oSTOJ8Qq5EkHQImpBdpsPKViwTnG+Zi6BZQAJUAJGoAGBtCASVBSQZOYWrShlAeUIPIBRB7Gu0XUGV5OXDVgMpTSSxU6rm5RdgpQApQAJWgAGoiFBkyFUiKzSrv1Bq3PzYTmeZLw9DB9pxgOdQWHqy9f01Hj2b0GFy/rI5bu+e//VcQ2stecs9fFs9exi+vdJX43PKuoaMBIKE0v0mb1Ke0u57qeManTeybuRwZKo177rvGie704LwPKCqTXXmfOXl8OUPLSbkgDYIVJA8ZBaWaJNo9OqFycpynppQcTAaSrU2SgJOInmbRKuBhUHCpCHWCyp8TeFBZBhSFWdYL9cGjCKCjNPqHt6gntFedCCSQBqUhBiQP9mRBPCVAKh0GB4Uc/DaqBoKCUKdaocfq851OvlSiXTFEimae1ozOqnzyj48Yp1Z6eddLWDzdoNiReUyShxHAaZ+RZ4SU5YSua9GJPPFOS4yE16UX+gt60pHS317RbcMKd8/WdgHydeEl2DCSOzcThKkR6OYzFoIMN18NgQwN3ayAoKOmmuqJ4LNJQYjh98ulnnl9UUF908LqvG7zy9J39TKkbSiLOkTp9Z0/tyUH4KnR527JiHHFaGTxyvro64NjdRgVthDYaRAOAEta+0wKGASRvx+kpCZHfC0pSYED2lMRWeEsMJfn5kw2xFllBBMt2ML9BBhiuhYGGBvxpAFAClO6EkonPlGSPpt+LDiJaLU/LqcZBByVOw+cAJ38GhdsPW7TbfTUAKAFKrlAy+e07z1Aq2M+LZG/ovMnTfs5UHg8gke/lRXe4c/laToctjC40MBoNAEqAkhZKo/6f0l3PlnQD3sv0nbiOX1RgD8kGmPMCBEOGvSHe5zK7Xqpo/y+Kz2E7GkOEdkW7sgYAJUBJCyUWyKDbu+Djdn7QcnE9jBw0EE4NAEqA0kihBMMQTsOAfkO/jUsDgBKgBCgp6/WNazCiXIAAGgguyF8U/5Ok+02R+Z8SBgcMJDQADYxDA/CU4CnBU4KnBA1AA8ZoAFAClIwR4zjuylAmvAFowCwNAEqAEqCEu2RoABowRgOAEqBkjBhxx2rWHSv6A/0xDg0ASoASoIS7ZGgAGjBGA4ASoGSMGMdxV4Yy4Q1AA2ZpAFAClEYKJXXFhqsvX9NR45nvMu2lgpwQFDAkZhkS9Af6Y1gaAJQAJS0gRr32XePFS225bsIGlGD03LSB49HSBqAEKGnhIOIombZKOIxPtIwP+hP9qdMAoAQouUKJA/yZEk9JJ2Acg2GDBqKlAUAJULoTSgyncUaetafv7DhIwghxhFiOJisiyeqOd4U6t2Ir3dLlVZPU68S1HPJCnJOvg9GLltFDf5rdn4ASoOQZSgynTz79THuNbrCrLzp43VfzkqHEQGIQcVrdcSvybIuD+tkB/1rtGEnycyo5f84PW7ONF/onmv0DKA0PStlHeYrMgqwMIHlriqfkFuJcd1wO5GdDy3mDzz5n7zPQEP48moYOAAtPvwYFpURyhjKLRVotHdBh44z2lmdJXWU7kS7Q4maFKrVTqjVO6PBwn4qLOUomUz1p1WvHvZ/JPqKdnZ1oQsmEZ0qyJ6ODjzA6uuO94NFDiY0WQwxwCo8R477DNhp9FhyUMpRf2aCV4jbt1nqhlEimKbNaob3NZcrOTlMyNUuZhR2qPK3Tat5sKM1mshaQ0ul0tKBk0tt3XVCyng21iMOYCy/n8qrSec4kT+vJoOrrKZWv6fJivv1cqkKXt07+MHbRMHbox3D0Y1BQYk8mkczRymEvlPi8vE0k56h4fEalxWljPaWp9AyVy2USQHrw4EF0oDTq/ynd9WxJNSAylMQ5e79lvbAgv5TA03D8IkPvOXdP6bxp52e96NB+7qTWA/vhMGzop/D2k4lQSiSnKTX7mBY3jujoaJsKabM9JQElAaRIQWlYg/ou+LidH1b5yCe8xgl9F8++Mw1KieQCbT49o8bpc6od7tD8jNlAEp4doITFLD2/jQhDG09Di3733u+mQcmevpumVGaeHq9X6LB+SE+yw3tDTp4eHNZ3QAlQApSgAWhgSBowE0o2hMTLD3OlEzouLRn9Bh6gNCQx4m7S+90k2gptFVUNmAwl4cnkNhtU31sGlKIqQPwuGFdoABqQNWAKlBJTc7RerdPW6gLNTvMr4dtUbjylzYXe/zQNa+ptGPnAU4KnhKkbaAAaGJIGgoJSplizXl4QLzDIn3qtRLn2n2NT2WUq7hzRQd3+8+zBwT6tLeRoyvA/zwJKQxKjfLeE77h7hgbiqYGgoDQMj8TUPASU+BOZZYZgEOJpENDv6PdxawBQGu6bfYASvCZM40AD0MAAGgCUACUMoAEG0LjvKlE+PJuoaQBQApRGCiV1xYarL1/TUeOZ7zLt5YOceEpRG4j4PYALNGBrAFAClLSAGPXad40XL7Xlug1MQAlG200bOB4tbQBKgJIWDiKOklGrhFsrg8NTggGOlgFGf/b2J6AEKLlCiQP8GRFPCVDS9hOMWq9RQ5uEu00AJUBJa+wYSPJ2rJFnFSjJoStEqAk5ttKb1i1dXjWtsBbiXFd8pXYsJis8RTtd6/aadgt2LCUYtHAbNPRf+PsPUAKUPEOJAfXJp59pr9EZBPVFB6/7al7yMyUrOmzTAYkVyK9lT+1xPKVWOx6SDa/ukOcOwOxgfoBS+A2Zqhfsh7dPASVASQsYBpC8NclTEkZn9+q24w1xMD8bSvpAfnIUWjZaumN8DtvwGjb0XXj7DlAClO6EkmnPlHjqjqfl7H3ZUwKUYJTDa5Tj3neAEqDkCiVT375TvRvhMXnylNrPkzB9B4Mdd8Nv8u8HlAAlLZRG/T+lu54tqYOm55nSbaszdXfTbNJN1zMlvack8mQvCy86AEyqxrBvhiYAJUBJC6VhDdC74ON2fljl35WP6nXdlR7nzTBc6Ifo9gOgBCiNFEomGQ/rrb1b5w+4/KYeP5syqa6oS3SNLvq2f98CSoBSbKAkjIE8faf+hwnGor+xQPugfYLQAKAEKMUKSkEMKpQB4w0N3F8DgBKgBCghdAU0AA0YowFACVAyRoy4u7z/3SXaDm0XFQ0ASoASoIS7ZGgAGjBGA4ASoGSMGKNyp4ffAa8FGri/BgAlQAlQwl0yNAANGKOBoKCUSM5QZrFIq6UDOmyc0d7yLCWn3IGQmH5C27Uzqu8+oUQy1Tdtv3yCPveO1zukyclJY0Tgtc5Id/+7P7Qd2g4a8KaB4KCUofzKBq0Ut2m31h9Kiak8Le9XabN0BCiFXcjqig1XX76mo8Yz30CWlxkKe5ug/t6ME9opnu0UFJTYY0kkc7Ry6A6lRHKa8ps12l+fo9nVKqA0roE56rXvGi9e+gIToBRPAzUu/aPc8enNNCilF8t0cLBOs1Mpml09BpTGNThEHCVTVwkPuk3s5Ylanei2QZeP8sZnINH2wbe9UVDKFGnvuEKLM/azJkBpjA9f5eB+psVTCtpQAErBG6ag+xjlmdPHpkApkZqn9WqDth5nOi81AEqGQIkBZVLkWXUNOxEjieEhL7AqrwLOC7CKNe/s0BXS4qzl6074C2GgOHDgi/wFvWk5YTIQOt0c4wWQRLMvTIFS6skBNU6faz/1kxqtZMPxBl5k3r5jEOm2n3z6mefnQeqLDl73VYMjP1Oy4NO8pt3CvFUPCzwcT+miSTI4zpv2tBsDqQdYfJ0LlM4LDuw4OKBaN+xH0ziiX8fTr6ZAiV+EkLfwlOApdeAnQ4mNhYg4q3o9djo7yJ98jewx8fXsWVleFqDUaWtuH2zHY5Tj3u6Akvt/pWRAev0eSU/JtGdKPHXHXg9PtQmvRgxoAStxzgqT3rTf8nOHUhtggBKgNMabwLiDSP79QUEpU6zpp+ZqJcq5/DkWntIYB4mYtjP17TsVMBZ82tNwQtwWpG6b9OZWDov+0no2xCCz0klTfTbYnPRynrJHJQ8efIcnAQ0MXwNBQcmrpxH2dJHxlEb9P6W7ni2pg71rKq5Qoctb5+WDm2az6yUFca14liQ/WxLH7Dyc61oSyMR5ASKeDlTz5HNqnmo9sT98I4U2jVebAkqYvhvptM1d8HE7P6ghElCSvaJB88P18TKM6O/x9TegBCiNFErjGNzqM6Zx1AFljs+ooe3D3faAEqAUKSgJD0lMweH17XAbJoAlvv0HKAFKkYISjFl8jRn6Php9DygBSoDSGN9yhCGNhiFFPw6vHwElQAlQApSgAWjAGA0ASoCSMWLE3ebw7jbRlmjLsGoAUAKUACXcJUMD0IAxGgCUACVjxBjWOzvUG14JNDA8DQBKgBKghLtkaAAaMEYDgBKgNFIxqis2XH35mo4az0ZaJu5ah3fXirZEWwatAUAJUNIC4k/ffEO6WEp8TJz3IlYVSrzfeGGv3u0lD6SBYYQG4qMBQAlQ0sJlq7RrrRLOEJK3YvVwcd6LoWAI+d16yXuQNFj5Oz5GbhCd4NrgdQIoAUqucLm8/oPWWxLHvQ5WvzDi9F7zv286QCl4Y3PfvsJ18eorQAlQcgXMb1bXSAT4k70ksS+OezUUDBm/WzV/ByJ2XCQOIdEvHIW6MCvvv8hfWLGVOEyFW168yrhb2WodsR8v44n+Hk1/A0qAUl/AfPTb33VBSez7GYx+YcTp1TIYDHIMJAYSw0NcYwUAbMdJYghxRFp5n/PjhVvtvJwgf/J5/i6XrdYP+6MxUGjX+LUroAQo9YXM3MISffvttxaYxFbs+zEUDBm/W7UMBgNDRJxXI9Bax9oBAEU6GULWOSnkuZqfyIs9J3krgKemVeuG/fgZTvT56PocUAKU7oTM6dlzC0pi63cw+oURp1fL0YHBHUq2x+MXSjyN56VsNQ32R2ek0LbxaltACVC6EzT5+QX65NPPSGz9GgiGjN+tWo4WSgX7+VLP9N3tNe0W2FNypuRESHOeglPz46lA2RM7bzZJTP2padW6YT9eRhP9Pdr+BpQAJd+g8TMo/cKI06tluIGBYcJTbgwdvl6AiM/dNJt0037eJM7zOfaQbM/KDhIormFAuZXNZWA7WiOF9o1X+wJKgFIooATDFC/DhP6Ob38HBaVEcoYyi0VaLR3QYeOM9pZnKTnVDYTE9BrtnZxR4/R512d7MdWTVr12nPvlcpn4847XwTQ5OTlSGHitB9LFd/Cj79H3JmogOChlKL+yQSvFbdqtuUAps0GVkz2aS5oNIRWAAkgPHjywPoASFrbEzQY0AA0MoIGgoMSGPJHM0cqhC5QK23R0vE05QAl3cCbewaFO0CU0MHoNGAWl+V2qHW7QLKA0+o7H4EIbQwPQgIkaMAtKO3T89JSqjWdUOzmlavWINtcWKG04pDB9N4CrbuKgQJ1grKGB8WnAKCgJ+KTaLz+kZml2foP26qdUXs0Z/6IDnikBTHiOAA1AA0PQgElQ4udO8jZTrFH9YJ2mDfaW4CkNQYi4Mx3fnSnaHm1vkgZMhlIimaLcRoPq5VVKAUoYOCYNHNQFeoQGRqMBU6CUmJqnjYMjKi7N0Uw6TclUhnJLJdpv1Gljvvc/TbI3Nc7vU+kZ6z9K6XQar4RjkI5mkKJd0a5x0kBQUBLTcOqfYsV+vVayXgFPJNOUzq/S+l6VDuunVGs8pcODMq0+zlHSYC9JADH7KE87OzskwIT/KY1oKo+XH+Lt1Zev6ajxzLg5fN0isTqDYi+PZK+tpzuPYwBRXDUQFJTG6c0EUTaDCVBSoPSnb77pisckBwwU38V5L4OPYaRuGy9eerreSxnDSAMoASbD0FGc8wCUupc6GgRgAkyAkgKlrdIuvX37VgsmcVyc9zIAVRh53feS9zDTAEqA0jD1FMe8AKXhQUkADVBSoCQG1eX1H7RQEse9DjqvEFLTec1/WOkAJUBpWFqKaz6AEqDkGQz3HSS/WV2jv/71b11gEvviuNc8Vdh43Vfz74Q9v7imm5YdpsKKUitFnu2Kz9SO2cThL9TQGGroDJGuOxSG89xIDjqoPlNS85HrwCE2rLyl0Bvqb8M+gBgFDQBKgJJnMAwi+I9++7suKIl9P/l5hZCaTi2DjX8HHG0YtZr2s6lecLRIBoTlCbXBwHlx3CVR1nmz5RtKdj5OMEI5fpNcH/W3YB8QiqIGACVAyRcc7jsI5haW6Ntvv7XAJLZi309eKmy87qtl9AJARK+VgeDs66biuoBx0ewAiMuRr1GBIu/b9WhHtpW8NPbIxFbAkMHXkurIZWELKEVRA4ASoOQLDoMMgtOz5xaUxNZvPl4hpKZTyxkOlGyIyQDicuRjMoTEeXlfhRJ7bpyPumUYAk4AkaqNqO0DSoCSb0DcdxDk5xfok08/I7H1m4cKG6/7ajm+oNR+ntQzfXd7TbuF+Y4Xw9N3HXDw+bJ4buV4YeLZED+T6oJSuxzOR9T5vNn2osrXdHkxb7UX5y+nU38f9gGtsGsAUAKUfANiHKL3CiE1nVpXP1AS19rp7RcidC8aCM+Ip9wsL+aqe0pPfknhptmkm67nUepLEE45MnjEc6pOGe1nX+rvwj5gFBUNAEqAUqygFJWBi98BCEVVA4ASoBQKKEV1AOJ3AS7QQLcGACVACVDS/OEXhqLbUKA90B5BaQBQApQAJUAJGoAGjNEAoAQoGSPGoO7EUA7u+qEBczUAKAFKgBLukqEBaMAYDQBKgJIxYsTdq7l3r+gb9E1QGgCUACVACXfJ0AA0YIwGACVAyRgxBnUnhnJw1w8NmKsBQAlQij2Unp7/ndUG6moQYh/Gy1zjhb6JZt8ASoBSrA2vABLDZxhQUpcxCtpw2ou+OuvtBV0+yosmKILsV0AJUIotlBhIgBIMaZBGF2X11xugBCjFEkoykEyFElYF72+8YNyj2T5BQSmRnKHMYpFWSwd02DijveVZSk71AiGRLtDS1iEd1E+p1jihg8oOLeVnKZlMadPr8hjnsXe8DpTJyclYwsBr+4wjnWnTd4BSNI3uOLQdpjKDg1KG8isbtFLcpt2aHkqJZI6WKyd0UFqlfGaWptJZyi5t0tpCFlAKk6jCUFcdgHTH+v0WNayFEyn2li6vpJAWUrgJ+5mPE4qCQ1Q4ABKRb1v0bzdv6M8tJx0HAZRDYXBsJrmOciBBcfyu9PK1+A4ImqCBoKDE3osAz8qhHkqpxTIdH21SNiReEf8meQtPKST/99ABSHfMbZAykOQAgCItH2+1QSS/eGCBp2kHCLTSinDqnfhKFbq8bXX27bzsYx1wWUEDnRhMurrJUJK/69LiGCBkogZMgVIimaL50ilVivlQTNPJIJK/A0ohgdKgg1EOey7npb59Z3tA3W/D6bwXx1Oyo8yKPNVjHeBJ0Wzlsq1rJHB5Sa9ej32AatwaMAdKWVqunFHpyRwtbh5Yz5SO63Uql9Yomw7H8yQBJ0DJcCj9+zcFuu9HHqz3gZLtubSIvSvZk1EBJMrSHZOPW5Fuyw7ErHMSlLi+nI8uPafBFjAyRQPmQMme1qsdV2htoUDpqWmamp2n5fIJVUtLlArJlB6gFCIoleYnLED90/Mp2l+cIN53g5Y8aNkL6UytFV7S5VWlPX3neEY2EOx9FWTCY1Kn7zg/URbDhI8JiF1e2BCSz9lwa5chQcktvfw78B0wMk0D5kBplpb2z6i8ku2avksUtumovkMFQAmDZxiDRwYOQ0gA6fvrR3d6UGr5NgzslxEcuIgXFVygVLCfEf3yyy8kPjfNJt0oz5QYQFwWT/Xxiw7nTenlB91zKwlKIg9des4bW4wpEzVgCpTE1FemWKPa3nK3VzRXApRMFE5Y66SD0qvzFL2/8oA+PnhIP32Rc4VTGH6zDcr+L0OE4XegjvEFpklQSkwvU6n+lEorj2kmPU2pzCKtH5zQfrGAV8IxSIczSAWUvrvM0o+f56i8YE/fiWOtr/P04f5DevVBKtRQsqYEb503/KCb4egG7RhcOwYFJeEFNU6f93zqtRLl5Km57DKtl+tUbZxStVql7bXHNC2f1/zhVn77bdzf8UzJ8GdKP3+Vp/Od96i8OEHiWZIA0keVh7S7MEFnm+/2ncYz2TCJ51ViSpCnEU2uK+oWnIEPY1sHBaVxwyKo8gElw6EkT9/5/R7GAY46AwBh0wCg1LvU0SAAA5QMh1LYBijqC6jETQOAEqCENfgAUmgAGjBGA4ASoGSMGON2R4jfCy8IGujVAKAEKAFKuEuGBqABYzQAKAFKxogRd429d41oE7RJ3DQAKAFKsYeSCPgnBr6fVcLjZijwewHHoDQAKAFKsYYSR6AFlEZndOW1+YIybChndP056rYFlACl2EKJgSQ8JEBpdEYMUBpd244aEOPIH1AClGIJJRlIgJJ3oymvTj4Og4UyvfdVWNsKUAKUYgkl3YDFM6W7DR6gdHcb6bSFY97bDVAClGIJJR2AdMf6GROOqdQJRXFVsdpSPS6vR2efu6XLi2u6adlhKES4Cl67zgpp0cmHw6GLcBhOyAo5vIWnsq7sdfHkvMXvUq/tBB8stMNvKNep6TmcBofXcFt7T125/K70/doc57wb97C2FaAEKAFKb/5Z++YdT+vpBjcbaDbknEZ33Aru14mbZAOGDTrDqNUVG8kOPcFeSRfULpqdRVc9l9WVdzsYIIOnHbmWy7IAaZ1rUXed+DoGZTvYoBK/idtB3spQkr/LafA9+rDx2seAEqAUSyh5HSBu6SzQaEJE6I73Gnw5CKAaFNDZl6/jesjH/JclgNKGS3tVcfbyeCsga8NOrqN0XTtQIXtrDMZ+odZlEHlJz78V23iCClAClGIFJb8rg8vpZSOpA4I4rztug4Q9DQc6Vvoej8U5LwOIy5aP+S9LgovwuDRQ1ddJuk6BklovHZxkKHlJz2mwBZQOq++T7iPANTk52RWmfJCVtKN8LVYJN3y5FhkyHA5dxFUSIdF5X04jf5eNJN/xyx7DZcfLaJE8rSfDo9cLcSAk8pfPM4B4Gk2ct4L4KVOB3suS4SLKbRHXX+R93uRpQ7VO8nXiu3OdAM7lRXsqTwKWDaI2iKUpPrf0ctviezxhxP0OTwmeUmw9JYaQANL3149cI84ymHjQ8NY2vPYLCF3PfdrPZHhKrPecPDWmAsDZZyi9aTovKsh5iXowHL2V5cDFutaCRe8LFDIY7TK6r+MXFdjTOm86eTBA3aAk8tOlF8fxQRsIDQBKgFKsjAEDRmwZSq/OU/T+ygP6+OAh/fRFzhVOQRvNDpTankjQ5Q+rPBtQthc2rDyRT3QBBigBSrGD0neXWfrx8xyVFyY6AGp9nacP9x/Sqw9SnWMywMT3oA1hVKBkTTm6PL8Kuk1RnvkwA5QApcCN7TgNw89f5el85z0qL06QeJYkYPNR5SHtLkzQ2ea7fafxgq532KEknqWJaUV1yjHodkR55oNI7iNACVCKFZRU78fPvjxw8D1chg79FZ7+ApQApVhBCcYpPMYJfRXPvgoKSonkKOQXxwAADStJREFUDGUWi7RaOqDDxhntLc92vWKeSC7Q5tMzapw+7/nUGztUSKa60pv6WjleCcdbVIA8NAANDKCB4KCUofzKBq0Ut2m31gslHWQSUzl6sl+n0lKWEoBSPO+acLeMfocG4qWBoKDE0Ekkc7RyeDeUEsk0za4e0eHuE0qFBEjiN8JTGuAOCcYnXsYH/Y3+1mnAWCiln1CpUaWVTDim7Ri6gBKghKkbaAAaGEADpkJpdu2YjneWQ+UlwVMaQIi6O6agjomAf6Isv6ErgqofyoFHEScNmAilRLJAxeopbT0e7ptx7M2McgtPKWRg4gi0YYeSvL6ebMDk5X7k4/gO0JmqASOhNFuk/ZNDWpoO19QdPKWQAonjJoXZUwKUABlTIeO3XiZCaWpxn2rVLcqG6AUH9r7gKYUETOwhMYjEwOHv8tbvgLpv+kFXb3CD0n3rg+sAuXFpwEQozaxWqb6/RmlACQMjyIEhw4i/B1U+oAStB6U108sJCkqZYq3nT7Hij7L1WolyCnxymw2q7y3TlHKcvRGTt/CUQuIpMXTu2roN4E54hysnrERXXCMlfIV8jkM/8LpwL/IXVmyjTviJ9uKlalgKOQ/1nJWXZtFTdYVutezzgh0Lye134jhgGbQGgoKSySAZZt0ApVhBqUXa+EE90WSdwHgqJHjAq55SB3plTQC9NvC6A/S1tJFk5fLk71wutoCOaRoAlIb7hh+gFBIoDToQ9dBoR1ptr47Nng9vhafDHo4aNrwHSv3y0IQyd3umJIPIrexB2wLXA2zD1ACgBCjF6o9+flYFV9PKA+8uKHFUVvka+TtDiOHE++z9uEFG5KE7pztmpZVCkXP5XBaXzcexBVxM0ACgBCjFFkoceVbEVRIh0XlfhRHvywO2L5S002t25FXhuVy2I8kyHASI5O+iHPZqGFLi2HmznYeSP1/LILS9o7bXJkHJrWz5d+E7wDRuDQBKgFLsoSSA9P31I9eIs36hJAa1DYaWFeROTN91w8U5zs+kxDX8EkI3XJy0ch7CM+JpQcvjuWp2nim5QUmUcd508pPLHrchQvmAIWsAUAKUYg+lV+cpen/lAX188JB++iLnCiceNGHa2oCyPaww1Rt1jS+kACVAKXZQ+u4ySz9+nqPywkQHQK2v8/Th/kN69UGqc4w9JN6G0VAK74s9rzDWH3WOH5wAJUApVlD6+as8ne+8R+XFCRLPkgRwPqo8pN2FCTrbfLfvNF6YDCRP77Va8JLC1G+o62MClAClWEGJvZ77bGEw4nfXjj4Pvs8BJUApVlCCkQneyKDN0eZ+NAAoAUqAUkz+8OvHMCAtQDIuDQBKgBKgBChBA9CAMRoAlAAlY8Q4rjszlAuvABowRwOAEqAEKOEuGRqABozRAKAEKBkjxnHdrYqAf6JsXRiLcdUJ5Zpz546+CLYvACVAKdZQ4gi0o4QSr00nLxMkGzp7nTt//yeSlxKS88L3YA0o2nv47Q0oAUqxhRIDSXhIwriMylMClIZvuACD6LYpoAQoxRJKMpDuA6W7QCMbzbvS3sdTkvPH9+ga6Dj2LaAEKMUSSrrB7sdTugs0cv53pQWUABVZL3H/DigBSrGEkg5AumM6A8GxjjqhI26vabcw7xquwoHSS3rTckJH8DMmFUpq/iJirVoPdfVvDnsh6oT17gA5VS9h2geUAKUegxcmAd+3rjoA6Y655e+AZt5qP2u/acNJXGNFgm0vhsppZVh0nxewkgP42QH6rHwKFbq8bXXFY7KOK8H7brDwaix17KbPMB8HlAAlDOZ7/EeFQcPeDhsBnceiSysfkz0lXt2bvTDeqt6S7CmxZ4Xw5vCQWIdh3gYFpURyhjKLRVotHdBh44z2lmcpOdUNhERymjJLJdo5ekrHjVM6Ojqk9cU8JZOpnrTqtabsv+NVDJOTk4DBPWDgtX3d0t1ndXC+Rs5Thoo4bkOiRQyPbmj0ejvy9SqUvMQ/kvPnenGegBPgxJoI4zY4KGUov7JBK8Vt2q25QCm/RYeNI1qdy9JUaprS2WXaqtapWOiGlykA0tUDUBoDaPwMPAaM2Jbm7SB/Iq6SCInO+3Ia+btcDgOAPSVrOq79bEmks4LrdabkbCjJ4ce7z6vTd93TdefN9tSeNWVnT+3JUBLfLy+kaUTNdJ9cd3wHtEzWQFBQYgOeSOZo5VAPpeTcDlWPNmhW8oxyG0+pspaHp2SyiMJUNxkyDCEBpO+vH7lGnOVr1N/JU3XCs9nJ71vPfjrTbc0m8XOeDsCaTeLzXc+XCg6URBk2cDQvRLhASVxz3nTSy/BT64x9AMl0DZgEpUQyQ/n1Cu3tbtBCIUvp3Brt1E9o6/EMoGS6kMJSPwaM2DKUXp2n6P2VB/TxwUP66YucK5xM+o2yp2RSvVAXQG9QDRgFpaksPd4+puOTM2qcPqf6yTOqbD6mlOQ5scdl6hbTdyGYvvvuMks/fp6j8oI9fScA1fo6Tx/uP6RXH6RCASVr+k+aLhzUEOB6wMQUDZgCpUQyTbmNGtVrFVouZGmmsEyrO1Xa392g/DRedMBLEUOC3c9f5el85z0qL06QeJYkgPRR5SHtLkzQ2ea7fafxTBi0/HaePP1nQr1QB0BtWBowB0rztF47oc356c5UnQBVZr1Ktb0VSofEW4KnNCR4DEvgaj7y9J3f72pe2IchhgaGrwFzoFSgYrVBxXy3V5SY36HjeolygNLwOx8DCm0KDUADpmnAHCilKLNWpWplm+ZzGZqamqZUZoHWKqdU3VkKzXMleEqGe0qmDUDUB1CABro1EBSUMsWa9fKCeIFB/tRrjheUmJql/Oou7VXtP89Wq1UqbSxTJtXtPZn6koOoly8o/YeJAuGDNoAGoAFowNHAf3wvTzPr1b4fkUYsQGAyDEypG6AE0OJGAxqABgbQAKA03NUiAKUBxIi7ReduEW2BtoirBgAlQCm0d3VPji+sul9+82dSP3Ed0PjdgFnYNQAoAUqhhJIAkgCRGIAqkPi4bnD+aumK/qV1Sy+X8r5/969qb6j1lytK/tr/tWpdBqmHmhf2AaIoaQBQApR8G+dxDwAGEsMHUIJRHrcmUf7wNAgoAUqhgpIMpPtAaRDjMUxPaZB64NrhGUC0pXltCSgBSqGCks6I+PGUdNd7PQYomWfAvPYd0oWn7wAlQClUUNIBSHfMzQjZz3Le0Nav8/SrX39AfxTPl37/phNS4l9+v9dpD/u8ExJChJ2Qnymp5/na5O9vqdWyyxD12PpTi1p/+qCTrzgm10Psi2ucsBbOtW6/A8fDY2TRV/76ClAClLqMpekDSAcg3TG33yHDgKHCwJBfPuBzf6w5LzVYcGm/6GCfd16Y+NWv9+jlX1rE6UVaASk376qrHtbLFwCRW5/huD+jHvb2ApQApVBBadAB1wUD9pTab+LZYLFBo4OJfEx8Z89G3rK3xFATocl1b/r11qNFbmkH/c24Pl5GPez9DSgBSqGA0v/7Y57u+5EHaS8MHGj4hZI8lSeXIb77gRJfy94W4ASIsCbiuAWUAKXQQWmjMGEB6pOTKSo9niDed4OWPLA9Q8nyopzpuA4wuqbvnPOijK0/OVNwPH1nPV/ia6T/SHXVY+mKXranCbkcngaU647vgFUcNAAoAUqhhZIA0v/6JHunByUP5C4Y9Jm+E9fIU3SW9/L77j/P2nk5L0IwSLqfPdnPmsRzKzt9e3pQeY4kruFpQH7GJdcb3wGkuGgAUAKUQgulf3w2RZXfPKCLvffob/+Yc4WTiYNZhqOJ9UOdAMFxaQBQApRCA6X/+Q8Zurl6RNvz9vSdmK77v5/n6Hz3PfrHs1SooCRP641r8KNcgMdEDQBKgFIooPT2n3J0uvUebT+eIPEsSQDpg933aGt+gurFd/tO45k08HhKUP4fk0n1Q10AqnFrAFAClEIBJbeXGLwcH/cgQ/kw9NCAdw0ASoBSKKCEQe19UKOt0FZh1gCgBCgBSghMCA1AA8ZoAFAaI5Ryc48JH7QBNAANQAOOBh7l5+iw+n7fj0gzOTlJyanhGvAo5ucrHDqE6AgRbYG2gAagAaEBQGm4oAWU4P3B+4UGoIEBNBAUlBLJGcosFmm1dECHjTPaW57t8bwSUxnKr+5SuXpCx42nVCmXaCE73ZPOZA8LUBpAjLhTxp0yNAANBAelDOVXNmiluE27tV4oJZJpyhaP6figRHPZGZpKZym/sk9H9X16PJ0KDZgAJQVKf3zzzyR/rr58TUeNZ7iTVNoJxhjGGBqwNRAUlNi7SSRztHKog9IcFY9PaGPemU4T3tXj3VOqFAuAUtCC/eb1a9os7QwMDxlI8vfGi5cD5x10m6A8gAMaGL0GzIHSPG3Un9J6odsrSi8fUr2yRulk93GGnGnbyHhKP/zwA719+5aurv9AT1bW7g0QGUR+vnsd/NlChS5vW/TmYv7edfRaFtKN3iChjdHG5kBphuZ3ntJReZ1yszOUTM1SZmGDdqrPqH60QbMhgdL/B0V8QZyHzpxyAAAAAElFTkSuQmCC;" vertex="1" parent="1">
          <mxGeometry x="600" y="200" width="421" height="430" as="geometry" />
        </mxCell>
        <mxCell id="N9XbUqhTSogNOb94nLWw-10" value="views" style="rounded=0;whiteSpace=wrap;html=1;fillColor=#dae8fc;strokeColor=#6c8ebf;" vertex="1" parent="1">
          <mxGeometry x="110" y="630" width="120" height="60" as="geometry" />
        </mxCell>
      </root>
    </mxGraphModel>
  </diagram>
</mxfile>
